<mxfile host="app.diagrams.net" modified="2022-05-17T11:11:16.054Z" agent="5.0 (Windows NT 10.0; Win64; x64) AppleWebKit/537.36 (KHTML, like Gecko) Chrome/101.0.4951.64 Safari/537.36" etag="VL6lLx9BF_9ZO8crvtgV" version="18.0.6" type="github">
  <diagram id="F9HSmA18T_RVeIi3x8mY" name="Page-1">
    <mxGraphModel dx="677" dy="378" grid="1" gridSize="10" guides="1" tooltips="1" connect="1" arrows="1" fold="1" page="1" pageScale="1" pageWidth="827" pageHeight="1169" math="0" shadow="0">
      <root>
        <mxCell id="0" />
        <mxCell id="1" parent="0" />
        <mxCell id="nfeJ7hGrYT68lYCE6eB4-1" value="Home" style="rounded=0;whiteSpace=wrap;html=1;" vertex="1" parent="1">
          <mxGeometry x="360" y="160" width="120" height="40" as="geometry" />
        </mxCell>
        <mxCell id="nfeJ7hGrYT68lYCE6eB4-2" value="" style="endArrow=none;html=1;rounded=0;" edge="1" parent="1">
          <mxGeometry width="50" height="50" relative="1" as="geometry">
            <mxPoint x="419.76" y="260" as="sourcePoint" />
            <mxPoint x="419.76" y="200" as="targetPoint" />
          </mxGeometry>
        </mxCell>
        <mxCell id="nfeJ7hGrYT68lYCE6eB4-3" value="" style="endArrow=none;html=1;rounded=0;" edge="1" parent="1">
          <mxGeometry width="50" height="50" relative="1" as="geometry">
            <mxPoint x="340" y="260" as="sourcePoint" />
            <mxPoint x="490" y="260" as="targetPoint" />
          </mxGeometry>
        </mxCell>
        <mxCell id="nfeJ7hGrYT68lYCE6eB4-5" value="About me" style="rounded=0;whiteSpace=wrap;html=1;" vertex="1" parent="1">
          <mxGeometry x="220" y="240" width="120" height="40" as="geometry" />
        </mxCell>
        <mxCell id="nfeJ7hGrYT68lYCE6eB4-6" value="About me" style="rounded=0;whiteSpace=wrap;html=1;" vertex="1" parent="1">
          <mxGeometry x="490" y="240" width="120" height="40" as="geometry" />
        </mxCell>
      </root>
    </mxGraphModel>
  </diagram>
</mxfile>
